<?xml version="1.0" encoding="utf-8"?>
<!-- Generator: Adobe Illustrator 16.0.0, SVG Export Plug-In . SVG Version: 6.00 Build 0)  -->
<!DOCTYPE svg PUBLIC "-//W3C//DTD SVG 1.1//EN" "http://www.w3.org/Graphics/SVG/1.1/DTD/svg11.dtd">
<svg version="1.1" id="Capa_1" xmlns="http://www.w3.org/2000/svg" xmlns:xlink="http://www.w3.org/1999/xlink" x="0px" y="0px"
	 width="25.851px" height="22.943px" viewBox="0.384 0.173 25.851 22.943" enable-background="new 0.384 0.173 25.851 22.943"
	 xml:space="preserve">
<path fill-rule="evenodd" clip-rule="evenodd" fill="#FFFFFF" d="M15.688,16.252c-0.313,0.283-0.604,0.555-0.899,0.816
	c-1.109,0.979-2.409,1.449-3.883,1.484c-0.718,0.018-1.427,0-2.117-0.207c-1.45-0.436-2.455-1.357-2.905-2.811
	c-0.53-1.711-0.442-3.389,0.463-4.963c0.791-1.376,2.054-2.148,3.537-2.596c1.293-0.39,2.629-0.527,3.964-0.668
	c0.377-0.04,0.756-0.078,1.188-0.122c0-0.418,0.007-0.839-0.003-1.259c-0.004-0.203-0.024-0.407-0.062-0.606
	c-0.198-1.064-0.9-1.661-1.986-1.692c-0.799-0.025-1.522,0.167-2.104,0.753c-0.31,0.312-0.487,0.692-0.591,1.113
	c-0.135,0.545-0.333,0.675-0.89,0.611C8.507,6.001,7.614,5.909,6.722,5.811C6.221,5.755,6.037,5.488,6.143,4.986
	C6.569,2.98,7.746,1.59,9.646,0.858c2.23-0.86,4.503-0.925,6.762-0.107c1.952,0.708,3.025,2.139,3.093,4.212
	c0.075,2.305,0.082,4.613,0.044,6.918c-0.018,1.229,0.29,2.298,1.081,3.233c0.096,0.113,0.179,0.24,0.242,0.371
	c0.134,0.283,0.078,0.518-0.155,0.723c-0.769,0.666-1.538,1.334-2.312,1.998c-0.39,0.338-0.72,0.357-1.074-0.008
	c-0.468-0.482-0.897-1.002-1.338-1.512C15.877,16.555,15.791,16.403,15.688,16.252z M15.04,9.766
	c-1.187,0.031-2.32,0.089-3.353,0.658c-0.209,0.114-0.409,0.259-0.58,0.424c-0.793,0.771-0.94,1.737-0.771,2.77
	c0.249,1.516,1.722,2.174,3.036,1.369c0.678-0.414,1.092-1.039,1.359-1.771C15.138,12.106,15.014,10.951,15.04,9.766z"/>
<path id="path8" fill="#FFFFFF" d="M23.876,19.09c-2.675,2.297-6.692,3.711-10.223,3.973c-4.95,0.365-9.541-1.137-13.138-3.932
	c-0.282-0.221-0.069-0.562,0.262-0.402c3.796,1.85,8.388,2.791,13.035,2.445c3.133-0.229,6.532-1.135,9.603-2.713
	C23.879,18.221,24.317,18.709,23.876,19.09"/>
<path id="path10" fill="#FFFFFF" d="M24.952,17.661c-0.395-0.438-2.405-0.043-3.31,0.133c-0.275,0.055-0.335-0.184-0.099-0.377
	c1.533-1.258,4.211-1.125,4.548-0.768c0.339,0.361,0.145,3.051-1.282,4.432c-0.217,0.211-0.447,0.125-0.361-0.143
	C24.726,20.063,25.35,18.096,24.952,17.661"/>
</svg>
