<?xml version="1.0" encoding="utf-8"?>
<!-- Generator: Adobe Illustrator 16.0.0, SVG Export Plug-In . SVG Version: 6.00 Build 0)  -->
<!DOCTYPE svg PUBLIC "-//W3C//DTD SVG 1.1//EN" "http://www.w3.org/Graphics/SVG/1.1/DTD/svg11.dtd">
<svg version="1.1" id="Capa_1" xmlns="http://www.w3.org/2000/svg" xmlns:xlink="http://www.w3.org/1999/xlink" x="0px" y="0px"
	 width="25.852px" height="22.943px" viewBox="0 0 25.852 22.943" enable-background="new 0 0 25.852 22.943" xml:space="preserve">
<path d="M15.688,16.252c-0.313,0.283-0.604,0.556-0.899,0.816c-1.108,0.979-2.409,1.449-3.883,1.483
	c-0.718,0.019-1.427,0-2.117-0.207c-1.45-0.436-2.455-1.356-2.905-2.811c-0.529-1.711-0.441-3.389,0.464-4.963
	c0.791-1.376,2.054-2.148,3.536-2.596c1.293-0.391,2.63-0.527,3.965-0.668c0.377-0.04,0.756-0.078,1.188-0.122
	c0-0.418,0.007-0.839-0.003-1.26c-0.004-0.202-0.024-0.406-0.062-0.605c-0.198-1.064-0.9-1.661-1.986-1.692
	c-0.799-0.024-1.522,0.167-2.104,0.753c-0.31,0.312-0.486,0.692-0.591,1.113C10.155,6.039,9.957,6.169,9.4,6.105
	C8.507,6.001,7.614,5.909,6.722,5.811C6.221,5.755,6.037,5.488,6.143,4.986C6.569,2.98,7.746,1.59,9.646,0.858
	c2.229-0.86,4.503-0.925,6.762-0.107c1.952,0.708,3.025,2.14,3.093,4.212c0.075,2.306,0.082,4.613,0.044,6.918
	c-0.018,1.229,0.29,2.299,1.081,3.233c0.097,0.113,0.18,0.24,0.242,0.371c0.134,0.283,0.078,0.518-0.155,0.723
	c-0.769,0.666-1.538,1.334-2.312,1.998c-0.39,0.338-0.72,0.357-1.074-0.008c-0.468-0.482-0.896-1.002-1.338-1.512
	C15.877,16.555,15.791,16.403,15.688,16.252z M15.04,9.766c-1.187,0.03-2.319,0.089-3.353,0.657c-0.209,0.114-0.409,0.26-0.58,0.425
	c-0.793,0.771-0.94,1.736-0.771,2.77c0.249,1.516,1.723,2.174,3.036,1.369c0.678-0.414,1.092-1.039,1.359-1.771
	C15.138,12.106,15.014,10.951,15.04,9.766z"/>
<path id="path8" fill="#FF9900" d="M23.876,19.09c-2.675,2.298-6.691,3.711-10.223,3.974c-4.95,0.364-9.541-1.138-13.138-3.933
	c-0.282-0.221-0.069-0.562,0.262-0.401c3.796,1.85,8.388,2.791,13.035,2.444c3.133-0.229,6.532-1.135,9.603-2.713
	C23.879,18.221,24.317,18.709,23.876,19.09"/>
<path id="path10" fill="#FF9900" d="M24.952,17.661c-0.395-0.438-2.405-0.043-3.31,0.133c-0.275,0.056-0.335-0.184-0.1-0.377
	c1.533-1.258,4.211-1.125,4.548-0.768c0.34,0.36,0.146,3.051-1.281,4.432c-0.218,0.211-0.447,0.125-0.361-0.143
	C24.726,20.063,25.35,18.096,24.952,17.661"/>
</svg>
